HIERARCHY
ROOT hip
{
  OFFSET -165.366 71.4021 -45.0797
  CHANNELS 6 Xposition Yposition Zposition Zrotation Xrotation Yrotation
  JOINT abdomen
  {
    OFFSET 0 20.6881 -0.73152
    CHANNELS 3 Zrotation Xrotation Yrotation
    JOINT chest
    {
      OFFSET 0 11.7043 -0.48768
      CHANNELS 3 Zrotation Xrotation Yrotation
      JOINT neck
      {
        OFFSET 0 22.1894 -2.19456
        CHANNELS 3 Zrotation Xrotation Yrotation
        JOINT head
        {
          OFFSET -0.24384 7.07133 1.2192
          CHANNELS 3 Zrotation Xrotation Yrotation
          JOINT leftEye
          {
            OFFSET 4.14528 8.04674 8.04672
            CHANNELS 3 Zrotation Xrotation Yrotation
            End Site
            {
              OFFSET 1 0 0
            }
          }
          JOINT rightEye
          {
            OFFSET -3.6576 8.04674 8.04672
            CHANNELS 3 Zrotation Xrotation Yrotation
            End Site
            {
              OFFSET 1 0 0
            }
          }
        }
      }
      JOINT rCollar
      {
        OFFSET -2.68224 19.2634 -4.8768
        CHANNELS 3 Zrotation Xrotation Yrotation
        JOINT rShldr
        {
          OFFSET -8.77824 -1.95073 1.46304
          CHANNELS 3 Zrotation Xrotation Yrotation
          JOINT rForeArm
          {
            OFFSET -28.1742 -1.7115 0.48768
            CHANNELS 3 Zrotation Xrotation Yrotation
            JOINT rHand
            {
              OFFSET -22.5879 0.773209 7.07136
              CHANNELS 3 Zrotation Xrotation Yrotation
              JOINT rThumb1
              {
                OFFSET -1.2192 -0.487915 3.41376
                CHANNELS 3 Zrotation Xrotation Yrotation
                JOINT rThumb2
                {
                  OFFSET -3.37035 -0.52449 3.41376
                  CHANNELS 3 Zrotation Xrotation Yrotation
                  End Site
                  {
                    OFFSET -1.78271 -1.18214 1.43049
                  }
                }
              }
              JOINT rIndex1
              {
                OFFSET -7.75947 0.938293 5.60832
                CHANNELS 3 Zrotation Xrotation Yrotation
                JOINT rIndex2
                {
                  OFFSET -2.54057 -0.884171 1.56538
                  CHANNELS 3 Zrotation Xrotation Yrotation
                  End Site
                  {
                    OFFSET -1.62519 -0.234802 1.16502
                  }
                }
              }
              JOINT rMid1
              {
                OFFSET -8.24714 1.18213 3.41376
                CHANNELS 3 Zrotation Xrotation Yrotation
                JOINT rMid2
                {
                  OFFSET -3.10165 -0.590103 1.0647
                  CHANNELS 3 Zrotation Xrotation Yrotation
                  End Site
                  {
                    OFFSET -2.48547 -0.328903 0.83742
                  }
                }
              }
              JOINT rRing1
              {
                OFFSET -8.82822 0.546677 1.51678
                CHANNELS 3 Zrotation Xrotation Yrotation
                JOINT rRing2
                {
                  OFFSET -2.60934 -0.819778 -0.0198488
                  CHANNELS 3 Zrotation Xrotation Yrotation
                  End Site
                  {
                    OFFSET -2.33842 -0.294052 0.168128
                  }
                }
              }
              JOINT rPinky1
              {
                OFFSET -8.27202 -0.0477905 -0.4584
                CHANNELS 3 Zrotation Xrotation Yrotation
                JOINT rPinky2
                {
                  OFFSET -1.82734 -0.647385 -0.700984
                  CHANNELS 3 Zrotation Xrotation Yrotation
                  End Site
                  {
                    OFFSET -1.69225 -0.51767 -0.607171
                  }
                }
              }
            }
          }
        }
      }
      JOINT lCollar
      {
        OFFSET 2.68224 19.2634 -4.8768
        CHANNELS 3 Zrotation Xrotation Yrotation
        JOINT lShldr
        {
          OFFSET 8.77824 -1.95073 1.46304
          CHANNELS 3 Zrotation Xrotation Yrotation
          JOINT lForeArm
          {
            OFFSET 28.1742 -1.7115 0.48768
            CHANNELS 3 Zrotation Xrotation Yrotation
            JOINT lHand
            {
              OFFSET 22.5879 0.773209 7.07136
              CHANNELS 3 Zrotation Xrotation Yrotation
              JOINT lThumb1
              {
                OFFSET 1.2192 -0.487915 3.41376
                CHANNELS 3 Zrotation Xrotation Yrotation
                JOINT lThumb2
                {
                  OFFSET 3.37035 -0.52449 3.41376
                  CHANNELS 3 Zrotation Xrotation Yrotation
                  End Site
                  {
                    OFFSET 1.78271 -1.18214 1.43049
                  }
                }
              }
              JOINT lIndex1
              {
                OFFSET 7.75947 0.938293 5.60832
                CHANNELS 3 Zrotation Xrotation Yrotation
                JOINT lIndex2
                {
                  OFFSET 2.54057 -0.884171 1.56538
                  CHANNELS 3 Zrotation Xrotation Yrotation
                  End Site
                  {
                    OFFSET 1.62519 -0.234802 1.16502
                  }
                }
              }
              JOINT lMid1
              {
                OFFSET 8.24714 1.18213 3.41376
                CHANNELS 3 Zrotation Xrotation Yrotation
                JOINT lMid2
                {
                  OFFSET 3.10165 -0.590103 1.0647
                  CHANNELS 3 Zrotation Xrotation Yrotation
                  End Site
                  {
                    OFFSET 2.48547 -0.328903 0.83742
                  }
                }
              }
              JOINT lRing1
              {
                OFFSET 8.82822 0.546677 1.51678
                CHANNELS 3 Zrotation Xrotation Yrotation
                JOINT lRing2
                {
                  OFFSET 2.60934 -0.819778 -0.0198488
                  CHANNELS 3 Zrotation Xrotation Yrotation
                  End Site
                  {
                    OFFSET 2.33842 -0.294052 0.168128
                  }
                }
              }
              JOINT lPinky1
              {
                OFFSET 8.27202 -0.0477905 -0.4584
                CHANNELS 3 Zrotation Xrotation Yrotation
                JOINT lPinky2
                {
                  OFFSET 1.82734 -0.647385 -0.700984
                  CHANNELS 3 Zrotation Xrotation Yrotation
                  End Site
                  {
                    OFFSET 1.69225 -0.51767 -0.607171
                  }
                }
              }
            }
          }
        }
      }
    }
  }
  JOINT rButtock
  {
    OFFSET -8.77824 4.35084 1.2192
    CHANNELS 3 Zrotation Xrotation Yrotation
    JOINT rThigh
    {
      OFFSET 0 -1.70687 -2.19456
      CHANNELS 3 Zrotation Xrotation Yrotation
      JOINT rShin
      {
        OFFSET 0 -36.8199 0.73152
        CHANNELS 3 Zrotation Xrotation Yrotation
        JOINT rFoot
        {
          OFFSET 0.73152 -45.1104 -5.12064
          CHANNELS 3 Zrotation Xrotation Yrotation
          End Site
          {
            OFFSET -1.1221 -3.69964 12.103
          }
        }
      }
    }
  }
  JOINT lButtock
  {
    OFFSET 8.77824 4.35084 1.2192
    CHANNELS 3 Zrotation Xrotation Yrotation
    JOINT lThigh
    {
      OFFSET 0 -1.70687 -2.19456
      CHANNELS 3 Zrotation Xrotation Yrotation
      JOINT lShin
      {
        OFFSET 0 -36.8199 0.73152
        CHANNELS 3 Zrotation Xrotation Yrotation
        JOINT lFoot
        {
          OFFSET -0.73152 -45.1104 -5.12064
          CHANNELS 3 Zrotation Xrotation Yrotation
          End Site
          {
            OFFSET 1.1221 -3.69964 12.103
          }
        }
      }
    }
  }
}
MOTION
Frames:	7
Frame Time:	0.00833333
-95.2219 74.8429 -20.4124 10.8559 -2.90744 151.159 -11.0649 47.0034 1.04561 1.43377 -2.09068 -3.13447 -15.7949 11.1159 6.9331 21.4604 -45.1854 24.1909 -0 0 0 -0 0 0 -2.86445e-013 2.53606e-013 6.53931e-015 69.8969 5.96014 -0.187974 -21.6644 -15.2565 42.9118 -1.21713 -29.6665 -4.59194 -2.59121e-010 1.00813e-009 4.7583e-009 -5.81513e-010 1.83498e-009 8.22395e-009 -2.59115e-010 1.00813e-009 4.75828e-009 7.73091 5.47488 0.417314 -2.59123e-010 1.00813e-009 4.7583e-009 2.90554 0.965183 0.102902 -2.59114e-010 1.00813e-009 4.7583e-009 10.2786 0.731801 0.0259123 -2.59126e-010 1.00814e-009 4.7583e-009 2.22167 -0.733487 -0.20892 -2.86419e-013 2.53593e-013 6.34056e-015 -66.2854 -7.27128 -3.78526 22.0197 -15.7867 -43.8438 2.57444 -40.6769 6.93758 2.6713e-009 -1.38611e-009 -4.40776e-009 4.74563e-009 -2.3897e-009 -7.513e-009 2.67129e-009 -1.38612e-009 -4.40775e-009 -7.73091 5.47488 -0.417314 2.6713e-009 -1.38612e-009 -4.40775e-009 -2.90554 0.965183 -0.102902 2.67129e-009 -1.38612e-009 -4.40775e-009 -10.2786 0.731801 -0.0259123 2.6713e-009 -1.38612e-009 -4.40776e-009 -2.22167 -0.733487 0.20892 -2.03217e-016 0 -3.88251e-019 -17.2039 -57.7997 -30.8123 -0.805386 54.6013 1.08225 2.5197 -3.85868 15.0862 2.03217e-016 0 3.88251e-019 33.3669 -41.8491 43.8418 7.52356 82.7283 -7.78232 1.09221 10.9243 2.72651 
-97.457 74.6373 -21.384 11.8192 -2.9255 150.246 -11.8715 47.7442 1.20687 1.65006 -2.10895 -3.24581 -15.88 11.3046 6.77688 21.8193 -45.4117 24.0193 -0 0 0 -0 0 0 -2.29045e-013 8.90738e-014 1.84522e-013 70.7671 5.09615 -0.740157 -21.5927 -15.1576 42.7028 -1.24259 -29.9454 -4.64391 -9.50854e-010 1.70272e-009 6.1644e-009 -1.81031e-009 3.06438e-009 1.06412e-008 -9.50848e-010 1.70272e-009 6.16437e-009 7.73091 5.47488 0.417314 -9.50856e-010 1.70272e-009 6.16439e-009 2.90554 0.965183 0.102902 -9.50848e-010 1.70272e-009 6.16439e-009 10.2786 0.731801 0.0259123 -9.5086e-010 1.70272e-009 6.1644e-009 2.22167 -0.733487 -0.20892 -2.2897e-013 8.90375e-014 1.84323e-013 -66.0716 -7.22363 -4.59709 21.9961 -15.7516 -43.7791 2.57294 -40.6687 6.93544 2.7031e-009 -1.42295e-009 -4.5389e-009 4.80702e-009 -2.45324e-009 -7.73629e-009 2.70309e-009 -1.42295e-009 -4.53889e-009 -7.73091 5.47488 -0.417314 2.7031e-009 -1.42295e-009 -4.5389e-009 -2.90554 0.965183 -0.102902 2.70309e-009 -1.42295e-009 -4.5389e-009 -10.2786 0.731801 -0.0259123 2.7031e-009 -1.42295e-009 -4.5389e-009 -2.22167 -0.733487 0.20892 -2.03217e-016 0 -3.88251e-019 -15.7439 -57.1783 -27.5349 -0.71301 52.438 0.983962 2.24217 -3.35046 14.8044 2.03217e-016 0 3.88251e-019 32.1913 -41.7731 42.4161 5.59529 80.6457 -5.89675 1.11452 10.019 1.70751 
-99.7349 74.3264 -22.3708 12.9988 -3.01838 149.37 -12.9972 48.3528 1.47362 1.73464 -2.00633 -3.37598 -16.0248 11.6472 6.64785 22.4787 -45.7677 24.032 -0 0 0 -0 0 0 -2.79271e-014 -1.68074e-013 2.77036e-013 71.6505 4.27769 -0.993893 -21.4205 -14.9148 42.2348 -1.28291 -30.3766 -4.72495 -1.65994e-009 1.98534e-009 6.17646e-009 -3.02909e-009 3.55117e-009 1.06448e-008 -1.65993e-009 1.98534e-009 6.17644e-009 7.73091 5.47488 0.417314 -1.65994e-009 1.98534e-009 6.17645e-009 2.90554 0.965183 0.102902 -1.65993e-009 1.98534e-009 6.17645e-009 10.2786 0.731801 0.0259123 -1.65995e-009 1.98535e-009 6.17646e-009 2.22167 -0.733487 -0.20892 -2.78708e-014 -1.68121e-013 2.76839e-013 -65.6689 -7.05523 -5.2219 22.0433 -15.8227 -43.9059 2.61827 -40.9537 7.0054 1.81834e-009 -1.07239e-009 -3.50801e-009 3.25152e-009 -1.84981e-009 -5.98724e-009 1.81834e-009 -1.07239e-009 -3.508e-009 -7.73091 5.47488 -0.417314 1.81834e-009 -1.07239e-009 -3.508e-009 -2.90554 0.965183 -0.102902 1.81834e-009 -1.07239e-009 -3.508e-009 -10.2786 0.731801 -0.0259123 1.81834e-009 -1.07239e-009 -3.50801e-009 -2.22167 -0.733487 0.20892 -2.03217e-016 0 -3.88251e-019 -14.9551 -56.4638 -24.9162 -0.660995 51.0895 0.931757 1.78685 -3.42712 12.3807 2.03217e-016 0 3.88251e-019 30.9048 -41.4519 41.2321 4.31344 78.4284 -4.67174 1.14232 8.97138 1.35166 
-102.136 73.9538 -23.4216 14.3676 -3.15722 148.492 -14.4218 48.8856 1.86524 1.75685 -1.83239 -3.5144 -16.1902 12.0943 6.52247 23.3222 -46.184 24.1245 -0 0 0 -0 0 0 2.72627e-013 -5.08267e-013 3.40186e-013 72.5695 3.37141 -1.02126 -21.15 -14.5353 41.5311 -1.33305 -30.8959 -4.82374 -2.42957e-009 2.05459e-009 5.37428e-009 -4.32837e-009 3.65148e-009 9.23759e-009 -2.42956e-009 2.05459e-009 5.37427e-009 7.73091 5.47488 0.417314 -2.42957e-009 2.05459e-009 5.37428e-009 2.90554 0.965183 0.102902 -2.42956e-009 2.05459e-009 5.37428e-009 10.2786 0.731801 0.0259123 -2.42957e-009 2.05459e-009 5.37428e-009 2.22167 -0.733487 -0.20892 2.72627e-013 -5.08318e-013 3.39993e-013 -65.1328 -6.77278 -5.73911 22.1437 -15.9747 -44.1794 2.6991 -41.447 7.12848 3.15314e-010 -4.51757e-010 -1.64382e-009 6.03894e-010 -7.81244e-010 -2.82214e-009 3.15312e-010 -4.51755e-010 -1.64382e-009 -7.73091 5.47488 -0.417314 3.15314e-010 -4.51755e-010 -1.64382e-009 -2.90554 0.965183 -0.102902 3.1531e-010 -4.51756e-010 -1.64382e-009 -10.2786 0.731801 -0.0259123 3.15318e-010 -4.51756e-010 -1.64383e-009 -2.22167 -0.733487 0.20892 -2.03217e-016 0 -3.88251e-019 -14.7216 -55.6589 -22.6595 -0.63379 50.3921 0.910395 1.0898 -3.86679 8.22292 2.03217e-016 0 3.88251e-019 29.5133 -40.9422 40.186 3.36568 76.0151 -3.79678 1.17152 7.85915 1.17756 
-104.641 73.487 -24.5267 15.6611 -3.28723 147.592 -15.7465 49.3238 2.2722 1.70577 -1.66348 -3.6229 -16.3323 12.5391 6.3633 24.1622 -46.5683 24.1377 -0 0 0 -0 0 0 5.2195e-013 -7.89127e-013 3.89923e-013 73.4415 2.46884 -0.967454 -20.8285 -14.0927 40.7226 -1.38492 -31.4138 -4.92364 -2.85727e-009 1.93599e-009 4.25728e-009 -5.03095e-009 3.42109e-009 7.29453e-009 -2.85726e-009 1.93598e-009 4.25726e-009 7.73091 5.47488 0.417314 -2.85727e-009 1.93598e-009 4.25727e-009 2.90554 0.965183 0.102902 -2.85726e-009 1.93598e-009 4.25727e-009 10.2786 0.731801 0.0259123 -2.85728e-009 1.93599e-009 4.25728e-009 2.22167 -0.733487 -0.20892 5.21881e-013 -7.89174e-013 3.89731e-013 -64.5512 -6.40252 -6.23111 22.2716 -16.1703 -44.531 2.78278 -41.9396 7.25393 -1.08668e-009 1.69673e-010 2.49452e-010 -1.87148e-009 2.88909e-010 3.96848e-010 -1.08668e-009 1.69678e-010 2.49453e-010 -7.73091 5.47488 -0.417314 -1.08668e-009 1.69678e-010 2.4945e-010 -2.90554 0.965183 -0.102902 -1.08669e-009 1.69677e-010 2.49451e-010 -10.2786 0.731801 -0.0259123 -1.08668e-009 1.69676e-010 2.49441e-010 -2.22167 -0.733487 0.20892 -2.03217e-016 0 -3.88251e-019 -14.832 -55.0013 -20.8241 -0.634071 50.3891 0.913022 0.326468 -4.28921 4.00285 2.03217e-016 0 3.88251e-019 28.3461 -40.4944 39.3228 2.67415 73.5411 -3.18396 1.19496 6.80316 1.02409 
-107.064 72.8499 -25.6442 16.6176 -3.35543 146.65 -16.5661 49.6504 2.57987 1.56947 -1.57587 -3.66329 -16.4071 12.8748 6.13255 24.805 -46.8283 23.9071 -0 0 0 -0 0 0 5.69376e-013 -8.68273e-013 4.42196e-013 74.1754 1.6616 -0.976957 -20.5117 -13.6692 39.9371 -1.42907 -31.841 -5.00706 -2.54059e-009 1.65506e-009 3.32484e-009 -4.45962e-009 2.91575e-009 5.69063e-009 -2.54058e-009 1.65505e-009 3.32483e-009 7.73091 5.47488 0.417314 -2.54059e-009 1.65506e-009 3.32483e-009 2.90554 0.965183 0.102902 -2.54058e-009 1.65506e-009 3.32483e-009 10.2786 0.731801 0.0259123 -2.54059e-009 1.65506e-009 3.32484e-009 2.22167 -0.733487 -0.20892 5.6925e-013 -8.6831e-013 4.41998e-013 -64.0116 -5.97042 -6.78025 22.4026 -16.3737 -44.8916 2.83237 -42.2231 7.32735 -1.66835e-009 5.22632e-010 1.36762e-009 -2.91023e-009 8.97088e-010 2.30755e-009 -1.66836e-009 5.22639e-010 1.36762e-009 -7.73091 5.47488 -0.417314 -1.66835e-009 5.22639e-010 1.36761e-009 -2.90554 0.965183 -0.102902 -1.66836e-009 5.22639e-010 1.36761e-009 -10.2786 0.731801 -0.0259123 -1.66835e-009 5.22637e-010 1.3676e-009 -2.22167 -0.733487 0.20892 -2.03217e-016 0 -3.88251e-019 -15.0269 -54.731 -19.4251 -0.667495 51.1235 0.935509 -0.193691 -4.32516 1.40039 2.03217e-016 0 3.88251e-019 27.7122 -40.3626 38.6671 2.17855 71.1411 -2.7632 1.19517 5.92367 0.731453 
-109.319 72.0598 -26.7726 17.0927 -3.4193 145.546 -16.5862 49.7306 2.60671 1.32444 -1.59782 -3.61868 -16.3399 13.0124 5.77946 25.0108 -46.7866 23.1924 -0 0 0 -0 0 0 2.62402e-013 -6.00622e-013 5.17414e-013 74.7515 1.07839 -1.19223 -20.223 -13.2927 39.2303 -1.47876 -32.3044 -5.0988 -8.27506e-010 1.06534e-009 2.596e-009 -1.49461e-009 1.88412e-009 4.47643e-009 -8.27503e-010 1.06534e-009 2.596e-009 7.73091 5.47488 0.417314 -8.27506e-010 1.06534e-009 2.596e-009 2.90554 0.965183 0.102902 -8.275e-010 1.06534e-009 2.596e-009 10.2786 0.731801 0.0259123 -8.27513e-010 1.06534e-009 2.59601e-009 2.22167 -0.733487 -0.20892 2.62226e-013 -6.00635e-013 5.17191e-013 -63.5169 -5.4354 -7.40497 22.5268 -16.5689 -45.2392 2.82097 -42.1564 7.31025 -8.72391e-010 4.60581e-010 1.28043e-009 -1.53967e-009 7.91242e-010 2.18801e-009 -8.72394e-010 4.60587e-010 1.28043e-009 -7.73091 5.47488 -0.417314 -8.72392e-010 4.60587e-010 1.28043e-009 -2.90554 0.965183 -0.102902 -8.72397e-010 4.60587e-010 1.28043e-009 -10.2786 0.731801 -0.0259123 -8.7239e-010 4.60586e-010 1.28042e-009 -2.22167 -0.733487 0.20892 -2.03217e-016 0 -3.88251e-019 -15.2436 -55.0383 -18.5803 -0.737805 52.8064 0.984754 -0.238042 -3.74302 1.37967 2.03217e-016 0 3.88251e-019 27.8359 -40.7969 38.3764 1.82419 68.9049 -2.48195 1.15809 5.2758 0.231274 
